# xmcd
#
# Track frame offsets: 
#        150
#        17370
#        32027
#        43582
#        55340
#        74352
#        85312
#        106735
#        118567
#        135262
#        150410
#        164125
#        177500
#        194867
#        205472
#        222575
#        238765
#
# Disc length: 3431 seconds
#
# Revision: 0
# Processed by: cddbd v1.5.2PL0 Copyright (c) Steve Scherf et al.
# Submitted via: ExactAudioCopy v0.95b4
#
DISCID=f60d6511
DTITLE=Various Artist - All I Want For Christmas
DYEAR=2002
DGENRE=Country
TTITLE0=Eric Hisaw - For Too Long
TTITLE1=The Barn Burners - Lit Up (Like a Christmas Tree) 
TTITLE2=Shelley King - Let's Stay Home For Christmas
TTITLE3=Silver Saddle - Samuel Jackson
TTITLE4=Lee Ann Atherton - Bells Of Bethlehem
TTITLE5=Eytan Mirsky - The Only Present I Want This Year (Is You)
TTITLE6=The Lonesome Trailers - Man In The Middle
TTITLE7=The Unkool Hillbillies - Honey, Merry Christmas
TTITLE8=Cynthia Gayneau - I Remember Christmas
TTITLE9=The Stumbleweeds - Honky Tonk Christmas
TTITLE10=The Rackabacs - No Gifts From Santa Claus
TTITLE11=Beau Killett - Here Comes Christmas
TTITLE12=Saltgrass - Do You Hear What I Hear
TTITLE13=Billy Eli Band - Winter Wonderland
TTITLE14=Groucho - Dead By Christmas
TTITLE15=Jim McGraw - That's What Santas Do
TTITLE16=Scott McClatchy - Nothin But A Child
EXTD=
EXTT0=
EXTT1=
EXTT2=
EXTT3=
EXTT4=
EXTT5=
EXTT6=
EXTT7=
EXTT8=
EXTT9=
EXTT10=
EXTT11=
EXTT12=
EXTT13=
EXTT14=
EXTT15=
EXTT16=
PLAYORDER=
